<svg width="38" height="38" viewBox="0 0 38 38" fill="none" xmlns="http://www.w3.org/2000/svg">
<circle cx="19" cy="19" r="19" fill="#F379A1"/>
<path d="M15.7749 8.13053C16.9533 7.96285 18.1724 9.417 18.4955 11.3992C18.8189 13.3703 18.1403 15.1125 16.9617 15.2913C15.7931 15.4702 14.564 14.0159 14.2309 12.0335C13.8976 10.0623 14.5962 8.32041 15.7749 8.13053ZM22.8947 8.25788C24.0758 8.48997 24.7017 10.2555 24.318 12.214C23.9043 14.183 22.634 15.5926 21.4625 15.3718C20.2812 15.1508 19.6653 13.3854 20.0689 11.4273C20.4627 9.45796 21.733 8.04834 22.8947 8.25788ZM10.3563 13.1412C11.5012 12.6176 13.0269 13.6331 13.8027 15.368C14.5281 17.1353 14.2363 18.9733 13.1013 19.4971C11.9664 20.0208 10.4504 19.0166 9.6949 17.2599C8.93942 15.5031 9.25139 13.6544 10.3563 13.1412ZM28.28 13.4618C29.3658 14.0142 29.6115 15.8729 28.7937 17.6015C27.9759 19.3301 26.4249 20.2794 25.3094 19.7154C24.1939 19.1514 23.968 17.3042 24.7561 15.5639C25.5935 13.8579 27.1546 12.8976 28.28 13.4618ZM26.4031 25.3978C26.4242 26.4419 25.6866 27.5834 24.8225 28.001C23.0238 28.8793 20.9466 26.9546 18.965 26.9191C16.9834 26.8837 14.8174 28.8102 13.0825 27.791C12.0964 27.2293 11.4352 25.774 11.5861 24.5775C11.7949 22.9269 13.5932 22.0708 14.6703 20.8797C16.1024 19.3398 17.1507 16.4161 19.1522 16.4519C21.1438 16.4875 22.1475 19.4035 23.4629 21.037C24.544 22.411 26.3657 23.5872 26.4031 25.3978Z" fill="white"/>
</svg>
